<?xml version="1.0" encoding="utf-8"?>
<!-- Generator: Adobe Illustrator 24.3.0, SVG Export Plug-In . SVG Version: 6.00 Build 0)  -->
<svg version="1.1"
	 id="svg2" inkscape:output_extension="org.inkscape.output.svg.inkscape" inkscape:version="0.46" sodipodi:docname="Primary Flight Display (W).svg" sodipodi:version="0.32" xmlns:cc="http://creativecommons.org/ns#" xmlns:dc="http://purl.org/dc/elements/1.1/" xmlns:inkscape="http://www.inkscape.org/namespaces/inkscape" xmlns:rdf="http://www.w3.org/1999/02/22-rdf-syntax-ns#" xmlns:sodipodi="http://sodipodi.sourceforge.net/DTD/sodipodi-0.dtd" xmlns:svg="http://www.w3.org/2000/svg"
	 xmlns="http://www.w3.org/2000/svg" xmlns:xlink="http://www.w3.org/1999/xlink" x="0px" y="0px" viewBox="0 0 530 500"
	 style="enable-background:new 0 0 530 500;" xml:space="preserve">
<style type="text/css">
	.st0{fill-rule:evenodd;clip-rule:evenodd;stroke:#FFFFFF;stroke-width:2;}
	.st1{fill:none;stroke:#FFFFFF;stroke-width:2;}
	.st2{fill-rule:evenodd;clip-rule:evenodd;fill:#FFFFFF;}
	.st3{fill-rule:evenodd;clip-rule:evenodd;fill:#FFFFFF;stroke:#FFFFFF;stroke-width:2;stroke-linecap:square;}
	.st4{fill:#FFFFFF;}
	.st5{fill-rule:evenodd;clip-rule:evenodd;fill:#FFFFFF;stroke:#FF00FF;stroke-width:3;stroke-linecap:square;}
	.st6{fill-rule:evenodd;clip-rule:evenodd;fill:#808080;}
	.st7{fill-rule:evenodd;clip-rule:evenodd;stroke:#FFFFFF;stroke-width:2;stroke-linecap:square;}
	.st8{fill-rule:evenodd;clip-rule:evenodd;fill:#FF00FF;stroke:#FFFFFF;stroke-width:2;stroke-linecap:square;}
	.st9{fill:none;stroke:#FF00FF;stroke-width:2;stroke-linecap:square;}
	.st10{fill:none;stroke:#FFFF00;stroke-width:2;stroke-linecap:square;}
	.st11{fill-rule:evenodd;clip-rule:evenodd;fill:#808080;stroke:#FFFFFF;stroke-width:2;stroke-linecap:square;}
	.st12{fill:none;stroke:#FFFFFF;stroke-width:2;stroke-linecap:square;}
	.st13{fill:none;stroke:#FFFFFF;stroke-width:2;stroke-linecap:square;stroke-miterlimit:4;}
</style>
<defs>
	
		<inkscape:perspective  id="perspective10" inkscape:persp3d-origin="372.04724 : 350.78739 : 1" inkscape:vp_x="0 : 526.18109 : 1" inkscape:vp_y="0 : 1000 : 0" inkscape:vp_z="744.09448 : 526.18109 : 1" sodipodi:type="inkscape:persp3d">
		</inkscape:perspective>
</defs>
<sodipodi:namedview  bordercolor="#666666" borderopacity="1.0" gridtolerance="10000" guidetolerance="10" id="base" inkscape:current-layer="layer1" inkscape:cx="265" inkscape:cy="94.281902" inkscape:document-units="px" inkscape:pageopacity="0.0" inkscape:pageshadow="2" inkscape:window-height="842" inkscape:window-width="1440" inkscape:window-x="-4" inkscape:window-y="-2" inkscape:zoom="0.81337264" objecttolerance="10" pagecolor="#ffffff" showgrid="false">
	</sodipodi:namedview>
<g id="layer1" transform="translate(-268.57144,-503.79074)" inkscape:groupmode="layer" inkscape:label="Layer 1">
	<path id="path3182" sodipodi:nodetypes="cc" class="st0" d="M369.69,734.03h275.03"/>
	<path id="path3196" sodipodi:nodetypes="cc" class="st1" d="M457.75,850.57h98.91"/>
	<path id="path3204" sodipodi:nodetypes="cc" class="st1" d="M457.75,675.76h98.91"/>
	<path id="path3206" sodipodi:nodetypes="cc" class="st1" d="M457.75,792.3h98.91"/>
	<path id="path3208" sodipodi:nodetypes="cc" class="st1" d="M483.18,704.89h48.07"/>
	<path id="path3210" sodipodi:nodetypes="cc" class="st1" d="M483.18,646.63h48.07"/>
	<path id="path3212" sodipodi:nodetypes="cc" class="st1" d="M483.18,763.16h48.07"/>
	<path id="path3214" sodipodi:nodetypes="cc" class="st1" d="M483.18,821.43h48.07"/>
	<path id="path3216" sodipodi:nodetypes="cc" class="st1" d="M495.63,632.06h23.16"/>
	<path id="path3218" sodipodi:nodetypes="cc" class="st1" d="M495.63,661.19h23.16"/>
	<path id="path3220" sodipodi:nodetypes="cc" class="st1" d="M495.63,690.33h23.16"/>
	<path id="path3222" sodipodi:nodetypes="cc" class="st1" d="M495.63,719.46h23.16"/>
	<path id="path3224" sodipodi:nodetypes="cc" class="st1" d="M495.63,748.6h23.16"/>
	<path id="path3226" sodipodi:nodetypes="cc" class="st1" d="M495.63,777.73h23.16"/>
	<path id="path3228" sodipodi:nodetypes="cc" class="st1" d="M495.63,806.86h23.16"/>
	<path id="path3230" sodipodi:nodetypes="cc" class="st1" d="M495.63,836h23.16"/>
	<path id="rect3238" sodipodi:nodetypes="cccc" class="st2" d="M517.43,602.7l-10.22,10.22l-10.22-10.22H517.43z"/>
	<path id="path3241" class="st2" d="M507.21,612.93l-8.66,8.69h17.31L507.21,612.93z M496.61,623.55l-3.59,3.59h28.38l-3.59-3.59
		H496.61z"/>
	<path id="path3258" sodipodi:nodetypes="cc" class="st3" d="M529.93,605.16l-1.52,8.62"/>
	<path id="path3262" sodipodi:nodetypes="cc" class="st3" d="M551.96,611.06l-3,8.23"/>
	<path id="path3264" sodipodi:nodetypes="cc" class="st3" d="M579.22,609.3l-10.96,18.99"/>
	<path id="path3266" sodipodi:nodetypes="cc" class="st3" d="M599.74,641.5l-6.19,6.19"/>
	<path id="path3268" sodipodi:nodetypes="cc" class="st3" d="M631.94,662.02l-18.99,10.96"/>
	<path id="path3270" sodipodi:nodetypes="cc" class="st3" d="M484.48,605.16l1.52,8.62"/>
	<path id="path3272" sodipodi:nodetypes="cc" class="st3" d="M462.45,611.06l3,8.23"/>
	<path id="path3274" sodipodi:nodetypes="cc" class="st3" d="M435.2,609.3l10.96,18.99"/>
	<path id="path3276" sodipodi:nodetypes="cc" class="st3" d="M414.68,641.5l6.19,6.19"/>
	<path id="path3278" sodipodi:nodetypes="cc" class="st3" d="M382.48,662.02l18.99,10.96"/>
	<path id="text3280" class="st4" d="M435.71,784.74l-4.32,1.36v1.14l2.82-0.86v11.94h-2.7v1.26h6.78v-1.26h-2.58V784.74z
		 M451.07,792.38c0.03-0.75-0.03-1.7-0.16-2.86c-0.13-1.16-0.49-2.21-1.09-3.14c-0.59-0.93-1.57-1.42-2.93-1.48
		c-1.12,0.03-1.97,0.38-2.56,1.05c-0.59,0.67-1,1.46-1.23,2.37c-0.23,0.91-0.35,1.76-0.38,2.53c-0.03,0.77-0.03,1.28-0.02,1.52
		c-0.03,0.62,0.02,1.52,0.15,2.69c0.13,1.17,0.49,2.25,1.08,3.23c0.59,0.98,1.58,1.5,2.95,1.57c1.39-0.06,2.38-0.55,2.97-1.49
		c0.59-0.94,0.95-1.99,1.07-3.16C451.05,794.04,451.09,793.1,451.07,792.38L451.07,792.38z M444.21,792.38
		c-0.02-0.5,0-1.24,0.06-2.22c0.06-0.97,0.28-1.87,0.66-2.69c0.38-0.82,1.03-1.26,1.96-1.31c0.74-0.06,1.37,0.34,1.88,1.2
		c0.51,0.86,0.78,2.53,0.8,5.02c-0.01,1.74-0.14,3.06-0.4,3.96c-0.26,0.9-0.59,1.51-1,1.82c-0.41,0.31-0.83,0.46-1.28,0.44
		c-0.89-0.04-1.52-0.44-1.9-1.2c-0.38-0.76-0.61-1.62-0.69-2.59C444.22,793.84,444.19,793.03,444.21,792.38L444.21,792.38z
		 M567.63,784.74l-4.32,1.36v1.14l2.82-0.86v11.94h-2.7v1.26h6.78v-1.26h-2.58V784.74z M582.98,792.38c0.03-0.75-0.03-1.7-0.16-2.86
		c-0.13-1.16-0.49-2.21-1.09-3.14c-0.59-0.93-1.57-1.42-2.93-1.48c-1.12,0.03-1.97,0.38-2.56,1.05c-0.59,0.67-1,1.46-1.22,2.37
		c-0.23,0.91-0.35,1.76-0.38,2.53s-0.03,1.28-0.02,1.52c-0.03,0.62,0.02,1.52,0.15,2.69c0.13,1.17,0.49,2.25,1.08,3.23
		c0.59,0.98,1.58,1.5,2.95,1.57c1.39-0.06,2.38-0.55,2.97-1.49s0.95-1.99,1.07-3.16C582.96,794.04,583.01,793.1,582.98,792.38
		L582.98,792.38z M576.12,792.38c-0.02-0.5,0-1.24,0.06-2.22c0.06-0.97,0.28-1.87,0.66-2.69c0.38-0.82,1.03-1.26,1.96-1.31
		c0.74-0.06,1.37,0.34,1.88,1.2s0.78,2.53,0.8,5.02c-0.01,1.74-0.14,3.06-0.4,3.96c-0.26,0.9-0.59,1.51-1,1.82
		c-0.41,0.31-0.83,0.46-1.28,0.44c-0.89-0.04-1.52-0.44-1.9-1.2c-0.38-0.76-0.61-1.62-0.69-2.59
		C576.13,793.84,576.1,793.03,576.12,792.38L576.12,792.38z"/>
	<path id="text3284" class="st4" d="M435.71,668.2l-4.32,1.36v1.14l2.82-0.86v11.94h-2.7v1.26h6.78v-1.26h-2.58V668.2z
		 M451.07,675.84c0.03-0.75-0.03-1.7-0.16-2.86c-0.13-1.16-0.49-2.21-1.09-3.14c-0.59-0.93-1.57-1.42-2.93-1.48
		c-1.12,0.03-1.97,0.38-2.56,1.05c-0.59,0.67-1,1.46-1.23,2.37c-0.23,0.91-0.35,1.76-0.38,2.53c-0.03,0.77-0.03,1.28-0.02,1.52
		c-0.03,0.62,0.02,1.52,0.15,2.69c0.13,1.17,0.49,2.25,1.08,3.23c0.59,0.98,1.58,1.5,2.95,1.57c1.39-0.06,2.38-0.55,2.97-1.49
		c0.59-0.94,0.95-1.99,1.07-3.16C451.05,677.5,451.09,676.56,451.07,675.84L451.07,675.84z M444.21,675.84
		c-0.02-0.5,0-1.24,0.06-2.22c0.06-0.97,0.28-1.87,0.66-2.69c0.38-0.82,1.03-1.26,1.96-1.31c0.74-0.06,1.37,0.34,1.88,1.2
		c0.51,0.86,0.78,2.53,0.8,5.02c-0.01,1.74-0.14,3.06-0.4,3.96c-0.26,0.9-0.59,1.51-1,1.82c-0.41,0.31-0.83,0.46-1.28,0.44
		c-0.89-0.04-1.52-0.44-1.9-1.2c-0.38-0.76-0.61-1.62-0.69-2.59C444.22,677.31,444.19,676.5,444.21,675.84L444.21,675.84z
		 M567.63,668.2l-4.32,1.36v1.14l2.82-0.86v11.94h-2.7v1.26h6.78v-1.26h-2.58V668.2z M582.98,675.84c0.03-0.75-0.03-1.7-0.16-2.86
		c-0.13-1.16-0.49-2.21-1.09-3.14c-0.59-0.93-1.57-1.42-2.93-1.48c-1.12,0.03-1.97,0.38-2.56,1.05c-0.59,0.67-1,1.46-1.22,2.37
		c-0.23,0.91-0.35,1.76-0.38,2.53s-0.03,1.28-0.02,1.52c-0.03,0.62,0.02,1.52,0.15,2.69s0.49,2.25,1.08,3.23
		c0.59,0.98,1.58,1.5,2.95,1.57c1.39-0.06,2.38-0.55,2.97-1.49s0.95-1.99,1.07-3.16C582.96,677.5,583.01,676.56,582.98,675.84
		L582.98,675.84z M576.12,675.84c-0.02-0.5,0-1.24,0.06-2.22c0.06-0.97,0.28-1.87,0.66-2.69c0.38-0.82,1.03-1.26,1.96-1.31
		c0.74-0.06,1.37,0.34,1.88,1.2s0.78,2.53,0.8,5.02c-0.01,1.74-0.14,3.06-0.4,3.96c-0.26,0.9-0.59,1.51-1,1.82
		c-0.41,0.31-0.83,0.46-1.28,0.44c-0.89-0.04-1.52-0.44-1.9-1.2c-0.38-0.76-0.61-1.62-0.69-2.59
		C576.13,677.31,576.1,676.5,576.12,675.84L576.12,675.84z"/>
	<path id="text3288" class="st4" d="M432.39,856.59c0.05-0.91,0.27-1.68,0.67-2.34c0.4-0.65,0.93-1.27,1.59-1.84l1.04-0.94
		c0.77-0.64,1.49-1.34,2.16-2.09c0.67-0.75,1.02-1.66,1.06-2.72c-0.02-1.1-0.36-1.95-1.01-2.56c-0.66-0.61-1.53-0.91-2.6-0.92
		c-1.29,0.03-2.28,0.43-2.97,1.21c-0.69,0.79-1.07,1.8-1.14,3.04h1.5c0.03-0.81,0.26-1.5,0.67-2.08s1.06-0.89,1.93-0.92
		c0.68,0.01,1.21,0.22,1.58,0.62c0.37,0.4,0.56,0.94,0.56,1.62c-0.05,0.82-0.4,1.57-1.05,2.27c-0.65,0.69-1.29,1.29-1.91,1.77
		c-1.14,0.92-2.01,1.85-2.63,2.79c-0.61,0.94-0.93,2.18-0.93,3.71v0.64h8.06v-1.26H432.39z M451.07,850.65
		c0.03-0.75-0.03-1.7-0.16-2.86c-0.13-1.16-0.49-2.21-1.09-3.14c-0.59-0.93-1.57-1.42-2.93-1.48c-1.12,0.03-1.97,0.38-2.56,1.05
		c-0.59,0.67-1,1.46-1.23,2.37c-0.23,0.91-0.35,1.76-0.38,2.53c-0.03,0.77-0.03,1.28-0.02,1.52c-0.03,0.62,0.02,1.52,0.15,2.69
		c0.13,1.17,0.49,2.25,1.08,3.23c0.59,0.98,1.58,1.5,2.95,1.57c1.39-0.06,2.38-0.55,2.97-1.49c0.59-0.94,0.95-1.99,1.07-3.16
		C451.05,852.31,451.09,851.37,451.07,850.65L451.07,850.65z M444.21,850.65c-0.02-0.5,0-1.24,0.06-2.22
		c0.06-0.97,0.28-1.87,0.66-2.69c0.38-0.82,1.03-1.26,1.96-1.31c0.74-0.06,1.37,0.34,1.88,1.2c0.51,0.86,0.78,2.53,0.8,5.02
		c-0.01,1.74-0.14,3.06-0.4,3.96c-0.26,0.9-0.59,1.51-1,1.82c-0.41,0.31-0.83,0.46-1.28,0.44c-0.89-0.04-1.52-0.44-1.9-1.2
		c-0.38-0.76-0.61-1.62-0.69-2.59C444.22,852.11,444.19,851.3,444.21,850.65L444.21,850.65z M564.31,856.59
		c0.05-0.91,0.27-1.68,0.67-2.34c0.4-0.65,0.93-1.27,1.59-1.84l1.04-0.94c0.77-0.64,1.49-1.34,2.16-2.09
		c0.67-0.75,1.02-1.66,1.06-2.72c-0.02-1.1-0.36-1.95-1.02-2.56c-0.66-0.61-1.53-0.91-2.6-0.92c-1.29,0.03-2.28,0.43-2.97,1.21
		c-0.69,0.79-1.07,1.8-1.14,3.04h1.5c0.03-0.81,0.26-1.5,0.67-2.08s1.06-0.89,1.93-0.92c0.68,0.01,1.21,0.22,1.58,0.62
		c0.37,0.4,0.56,0.94,0.56,1.62c-0.05,0.82-0.4,1.57-1.05,2.27s-1.29,1.29-1.91,1.77c-1.14,0.92-2.01,1.85-2.63,2.79
		c-0.61,0.94-0.93,2.18-0.93,3.71v0.64h8.06v-1.26H564.31z M582.98,850.65c0.03-0.75-0.03-1.7-0.16-2.86
		c-0.13-1.16-0.49-2.21-1.09-3.14c-0.59-0.93-1.57-1.42-2.93-1.48c-1.12,0.03-1.97,0.38-2.56,1.05c-0.59,0.67-1,1.46-1.22,2.37
		c-0.23,0.91-0.35,1.76-0.38,2.53s-0.03,1.28-0.02,1.52c-0.03,0.62,0.02,1.52,0.15,2.69s0.49,2.25,1.08,3.23
		c0.59,0.98,1.58,1.5,2.95,1.57c1.39-0.06,2.38-0.55,2.97-1.49s0.95-1.99,1.07-3.16C582.96,852.31,583.01,851.37,582.98,850.65
		L582.98,850.65z M576.12,850.65c-0.02-0.5,0-1.24,0.06-2.22c0.06-0.97,0.28-1.87,0.66-2.69c0.38-0.82,1.03-1.26,1.96-1.31
		c0.74-0.06,1.37,0.34,1.88,1.2s0.78,2.53,0.8,5.02c-0.01,1.74-0.14,3.06-0.4,3.96c-0.26,0.9-0.59,1.51-1,1.82
		c-0.41,0.31-0.83,0.46-1.28,0.44c-0.89-0.04-1.52-0.44-1.9-1.2c-0.38-0.76-0.61-1.62-0.69-2.59
		C576.13,852.11,576.1,851.3,576.12,850.65L576.12,850.65z"/>
	<g id="g3298" transform="translate(3.7878786,-20.000005)">
		<path id="path3292" class="st5" d="M431.46,774.44h142.42"/>
		<path id="path3296" class="st5" d="M502.67,703.23v142.42"/>
	</g>
	<rect id="rect3310" x="275.39" y="571.83" class="st6" width="64.39" height="364.39"/>
	<path id="rect3314" sodipodi:nodetypes="cccccccc" class="st7" d="M340.14,732.47h41.31v13.48l11.04,8.49l-11.04,8.49v13.48h-41.31
		V732.47z"/>
	<path id="path3339" class="st8" d="M329.65,754h9.14"/>
	<path id="path3333" sodipodi:nodetypes="cccccc" class="st9" d="M359.68,762.52h-16.63l-11.04-8.49l11.04-8.49h16.63V762.52z"/>
	<path id="path3343" class="st8" d="M329.65,724h9.14"/>
	<path id="path3345" class="st8" d="M329.65,694h9.14"/>
	<path id="path3347" class="st8" d="M329.65,664h9.14"/>
	<path id="path3349" class="st8" d="M329.65,634h9.14"/>
	<path id="path3351" class="st8" d="M329.65,604h9.14"/>
	<path id="path3353" class="st8" d="M329.65,574h9.14"/>
	<path id="path3355" class="st8" d="M329.65,784h9.14"/>
	<path id="path3357" class="st8" d="M329.65,814h9.14"/>
	<path id="path3359" class="st8" d="M329.65,844h9.14"/>
	<path id="path3361" class="st8" d="M329.65,874h9.14"/>
	<path id="path3363" class="st8" d="M329.65,904h9.14"/>
	<path id="path3365" class="st8" d="M329.65,934h9.14"/>
	<path id="path3413" sodipodi:nodetypes="cccc" class="st10" d="M340.78,866.44h6.61v42.75v26.04"/>
	<rect id="rect3423" x="686.75" y="571.83" class="st6" width="64.39" height="364.39"/>
	<rect id="rect3446" x="686.75" y="751.76" class="st2" width="12.08" height="4.53"/>
	<path id="path3462" class="st8" d="M687.75,580.92h9.14"/>
	<path id="path3464" class="st8" d="M687.75,927.13h9.14"/>
	<path id="path3472" class="st8" d="M687.75,709.8h9.14"/>
	<path id="path3474" class="st8" d="M687.75,666.84h9.14"/>
	<path id="path3476" class="st8" d="M687.75,623.88h9.14"/>
	<path id="path3478" class="st8" d="M687.75,798.25h9.14"/>
	<path id="path3480" class="st8" d="M687.75,841.21h9.14"/>
	<path id="path3482" class="st8" d="M687.75,884.17h9.14"/>
	<path id="text3576" class="st4" d="M285.06,967.38c0.02,0.61,0.23,1.12,0.65,1.51c0.42,0.39,0.94,0.6,1.55,0.61
		c0.6-0.01,1.11-0.22,1.53-0.61c0.42-0.39,0.63-0.9,0.65-1.51c-0.02-0.61-0.23-1.11-0.65-1.5s-0.92-0.59-1.53-0.6
		c-0.6,0.01-1.12,0.21-1.54,0.6S285.07,966.77,285.06,967.38L285.06,967.38z M295.07,949.54v1.71h8.32l-7.18,17.87h2.2l7.64-19.59
		H295.07z M310.44,955.9c-0.02-1.23,0.27-2.36,0.85-3.39s1.55-1.58,2.91-1.64c1.18,0.06,2.03,0.57,2.57,1.52
		c0.54,0.95,0.81,1.96,0.8,3.03c-0.02,1.26-0.37,2.38-1.06,3.36s-1.6,1.49-2.72,1.54c-1.21-0.05-2.07-0.52-2.59-1.41
		S310.43,957.02,310.44,955.9L310.44,955.9z M308.65,968.31c0.55,0.35,1.13,0.63,1.75,0.85c0.62,0.22,1.26,0.34,1.92,0.34
		c2.01,0,3.74-0.98,5.17-2.93s2.19-4.86,2.25-8.71c0.02-1.3-0.12-2.61-0.42-3.94s-0.86-2.44-1.68-3.35s-2.02-1.38-3.59-1.42
		c-1.87,0.07-3.28,0.78-4.23,2.13s-1.43,2.9-1.43,4.64c0,1.59,0.44,2.98,1.31,4.19c0.87,1.21,2.15,1.84,3.84,1.9
		c0.9,0,1.67-0.17,2.32-0.51c0.65-0.34,1.26-0.84,1.85-1.51c-0.05,0.99-0.28,2.08-0.69,3.27c-0.4,1.2-0.99,2.24-1.76,3.12
		c-0.77,0.88-1.72,1.34-2.86,1.39c-0.5-0.01-0.99-0.14-1.47-0.38c-0.48-0.24-0.92-0.5-1.31-0.79L308.65,968.31z M331.99,949.54
		h-8.76l-0.82,10.85l2.07,0.41c0.38-0.64,0.83-1.17,1.38-1.58c0.54-0.42,1.2-0.63,1.97-0.65c0.79-0.01,1.54,0.36,2.23,1.12
		c0.7,0.76,1.07,1.95,1.11,3.59c0,1.09-0.3,2.1-0.9,3.03s-1.49,1.42-2.66,1.48c-0.86-0.02-1.63-0.29-2.29-0.81
		c-0.66-0.52-1.18-1.16-1.55-1.91l-1.58,1.17c0.61,0.95,1.35,1.72,2.22,2.33s1.89,0.92,3.06,0.94c1.81-0.06,3.22-0.7,4.22-1.93
		c1-1.23,1.51-2.72,1.52-4.46c-0.04-1.97-0.57-3.51-1.59-4.6c-1.02-1.09-2.31-1.64-3.85-1.66c-1.25,0-2.34,0.41-3.26,1.25l0.54-6.86
		h6.94V949.54z"/>
	<rect id="rect3602" x="757.64" y="709.8" class="st6" width="40.93" height="88.45"/>
	<path id="path3604" sodipodi:nodetypes="ccccc" class="st2" d="M778.01,751.53v5h20.47v-5H778.01z"/>
	<path id="path3425" sodipodi:nodetypes="cccccccc" class="st7" d="M684.76,732.06h-54.98v13.48l-11.04,8.49l11.04,8.49V776h54.98
		V732.06z"/>
	<path id="path3610" sodipodi:nodetypes="cc" class="st8" d="M769.5,754.03h8.15"/>
	<path id="path3614" sodipodi:nodetypes="cc" class="st8" d="M769.5,689.9h8.15"/>
	<path id="path3616" sodipodi:nodetypes="cc" class="st8" d="M769.5,662.83h8.15"/>
	<path id="path3618" sodipodi:nodetypes="cc" class="st8" d="M769.5,645.77h8.15"/>
	<path id="path3620" sodipodi:nodetypes="cc" class="st8" d="M769.5,791.09h8.15"/>
	<path id="path3622" sodipodi:nodetypes="cc" class="st8" d="M769.5,818.16h8.15"/>
	<path id="path3624" sodipodi:nodetypes="cc" class="st8" d="M769.5,845.23h8.15"/>
	<path id="path3626" sodipodi:nodetypes="cc" class="st8" d="M769.5,862.29h8.15"/>
	<path id="path3674" sodipodi:nodetypes="cc" class="st8" d="M769.5,735.5h2.77"/>
	<path id="path3676" sodipodi:nodetypes="cc" class="st8" d="M769.5,703.43h2.77"/>
	<path id="path3678" sodipodi:nodetypes="cc" class="st8" d="M769.5,676.36h2.77"/>
	<path id="path3680" sodipodi:nodetypes="cc" class="st8" d="M769.5,654.3h2.77"/>
	<path id="path3682" sodipodi:nodetypes="cc" class="st8" d="M769.5,772.56h2.77"/>
	<path id="path3684" sodipodi:nodetypes="cc" class="st8" d="M769.5,804.63h2.77"/>
	<path id="path3686" sodipodi:nodetypes="cc" class="st8" d="M769.5,831.69h2.77"/>
	<path id="path3688" sodipodi:nodetypes="cc" class="st8" d="M769.5,853.76h2.77"/>
	<path id="path3714" sodipodi:nodetypes="cc" class="st11" d="M458.79,510.85v35.29"/>
	<path id="path3724" sodipodi:nodetypes="cc" class="st11" d="M500.53,971.09h13.36"/>
	<path id="path3732" class="st12" d="M507.21,926.34v15.3"/>
	<path id="path3780" sodipodi:nodetypes="cs" class="st12" d="M490.29,927.08l0.58,6.69"/>
	<g id="use3782" transform="matrix(0.9848078,-0.1736482,0.1736482,0.9848078,-186.81164,105.09376)">
		<path id="path3732_1_" class="st12" d="M473.51,929.29l2.66,15.07"/>
	</g>
	<g id="use3784" transform="matrix(0.9848078,-0.1736482,0.1736482,0.9848078,-186.81164,105.09376)">
		<path id="path3780_1_" sodipodi:nodetypes="cs" class="st12" d="M456.98,932.95l1.74,6.48"/>
	</g>
	<g id="use3790" transform="matrix(0.9396927,-0.3420202,0.3420202,0.9396927,-352.53588,241.03042)">
		<path id="path3732_2_" class="st13" d="M440.83,938.05l5.23,14.38"/>
	</g>
	<g id="use3792" transform="matrix(0.9396927,-0.3420202,0.3420202,0.9396927,-352.53588,241.03042)">
		<path id="path3780_2_" sodipodi:nodetypes="cs" class="st13" d="M425.19,944.53l2.84,6.08"/>
	</g>
	<g id="use3794" transform="matrix(0.8660255,-0.5000001,0.5000001,0.8660255,-492.13724,403.6796)">
		<path id="path3732_3_" class="st13" d="M410.17,952.34l7.65,13.25"/>
	</g>
	<g id="use3796" transform="matrix(0.8660255,-0.5000001,0.5000001,0.8660255,-492.13724,403.6796)">
		<path id="path3780_3_" sodipodi:nodetypes="cs" class="st13" d="M395.89,961.44l3.85,5.5"/>
	</g>
	<g id="use3806" transform="matrix(0.7660445,-0.6427877,0.6427877,0.7660445,-601.374,588.09931)">
		<path id="path3732_4_" class="st13" d="M382.46,971.75l9.83,11.72"/>
	</g>
	<g id="use3808" transform="matrix(0.7660445,-0.6427877,0.6427877,0.7660445,-601.374,588.09931)">
		<path id="path3780_4_" sodipodi:nodetypes="cs" class="st13" d="M369.97,983.19l4.75,4.75"/>
	</g>
	<g id="use3814" transform="matrix(0.9848078,0.1736482,-0.1736482,0.9848078,202.22292,-71.057657)">
		<path id="path3780_6_" sodipodi:nodetypes="cs" class="st12" d="M524.12,927.08l-0.58,6.69"/>
	</g>
	<g id="use3816" transform="matrix(0.9848078,0.1736482,-0.1736482,0.9848078,202.22029,-71.057884)">
		<path id="path3732_6_" class="st12" d="M540.91,929.29l-2.66,15.07"/>
	</g>
	<g id="use3818" transform="matrix(0.9396927,0.3420202,-0.3420202,0.9396927,413.71256,-105.91969)">
		<path id="path3780_7_" sodipodi:nodetypes="cs" class="st13" d="M557.44,932.96l-1.74,6.48"/>
	</g>
	<g id="use3820" transform="matrix(0.9396927,0.3420202,-0.3420202,0.9396927,413.71002,-105.92037)">
		<path id="path3732_7_" class="st13" d="M573.58,938.05l-5.23,14.38"/>
	</g>
	<g id="use3822" transform="matrix(0.8660255,0.5000001,-0.5000001,0.8660255,628.04294,-103.5273)">
		<path id="path3780_8_" sodipodi:nodetypes="cs" class="st13" d="M589.23,944.53l-2.84,6.08"/>
	</g>
	<g id="use3824" transform="matrix(0.8660255,0.5000001,-0.5000001,0.8660255,628.04055,-103.52841)">
		<path id="path3732_8_" class="st13" d="M604.24,952.34l-7.65,13.25"/>
	</g>
	<g id="use3826" transform="matrix(0.7660445,0.6427877,-0.6427877,0.7660445,838.70172,-63.953177)">
		<path id="path3780_9_" sodipodi:nodetypes="cs" class="st13" d="M618.53,961.44l-3.85,5.5"/>
	</g>
	<g id="use3828" transform="matrix(0.7660445,0.6427877,-0.6427877,0.7660445,838.69957,-63.954684)">
		<path id="path3732_9_" class="st13" d="M631.96,971.75l-9.83,11.72"/>
	</g>
	<g id="use3830" transform="matrix(0.6427877,0.7660445,-0.7660445,0.6427877,1039.2882,11.600243)">
		<path id="path3780_10_" sodipodi:nodetypes="cs" class="st13" d="M644.44,983.19l-4.75,4.75"/>
	</g>
	<path id="text3836" class="st4" d="M501.67,956.3c0.03-0.66,0.2-1.23,0.49-1.71c0.29-0.48,0.68-0.93,1.16-1.35l0.76-0.69
		c0.56-0.47,1.09-0.98,1.58-1.53c0.49-0.55,0.74-1.21,0.78-1.99c-0.01-0.8-0.26-1.42-0.74-1.87c-0.48-0.44-1.11-0.67-1.9-0.67
		c-0.94,0.02-1.67,0.31-2.17,0.89c-0.51,0.57-0.78,1.31-0.84,2.22h1.1c0.02-0.59,0.19-1.1,0.49-1.52c0.3-0.43,0.77-0.65,1.41-0.67
		c0.5,0.01,0.88,0.16,1.15,0.45c0.27,0.29,0.41,0.69,0.41,1.18c-0.04,0.6-0.29,1.15-0.77,1.66c-0.47,0.51-0.94,0.94-1.39,1.29
		c-0.83,0.67-1.47,1.35-1.92,2.04c-0.45,0.69-0.68,1.59-0.68,2.71v0.47h5.89v-0.92H501.67z M509.97,952.05
		c0.79-0.07,1.45,0.1,1.97,0.5c0.52,0.4,0.79,1.02,0.81,1.87c-0.01,0.66-0.22,1.17-0.62,1.53c-0.4,0.37-0.92,0.55-1.57,0.56
		c-0.56-0.01-1.02-0.16-1.37-0.45s-0.63-0.69-0.85-1.2l-0.96,0.57c0.36,0.61,0.79,1.1,1.29,1.45s1.12,0.54,1.85,0.55
		c0.97-0.01,1.76-0.29,2.38-0.85c0.62-0.56,0.93-1.32,0.95-2.31c0-0.65-0.17-1.21-0.5-1.68c-0.33-0.47-0.78-0.83-1.37-1.08
		c0.42-0.26,0.75-0.57,1-0.95c0.25-0.38,0.38-0.82,0.39-1.31c-0.02-0.79-0.29-1.44-0.82-1.95c-0.53-0.51-1.19-0.77-1.98-0.79
		c-0.68,0.01-1.27,0.18-1.79,0.51c-0.52,0.34-0.93,0.8-1.24,1.4l0.92,0.53c0.18-0.4,0.44-0.75,0.79-1.05
		c0.35-0.3,0.75-0.45,1.21-0.47c0.5,0.01,0.93,0.17,1.28,0.48c0.35,0.31,0.53,0.73,0.55,1.26c-0.02,0.64-0.26,1.13-0.7,1.48
		c-0.45,0.35-0.98,0.51-1.59,0.49V952.05z"/>
	<path id="text3840" class="st4" d="M526.68,962.18c0.22-0.97,0.61-1.77,1.17-2.39c0.56-0.63,1.24-1.19,2.06-1.69l1.3-0.82
		c0.96-0.55,1.86-1.16,2.73-1.85c0.86-0.69,1.42-1.6,1.66-2.74c0.19-1.19-0.01-2.17-0.61-2.95c-0.59-0.78-1.47-1.28-2.63-1.49
		c-1.4-0.22-2.54,0.03-3.44,0.74s-1.5,1.74-1.81,3.07l1.62,0.29c0.19-0.86,0.56-1.57,1.12-2.12c0.56-0.55,1.31-0.76,2.26-0.62
		c0.74,0.14,1.27,0.46,1.59,0.97c0.32,0.5,0.42,1.12,0.3,1.86c-0.21,0.87-0.73,1.62-1.57,2.25c-0.83,0.63-1.63,1.14-2.39,1.55
		c-1.4,0.78-2.52,1.62-3.37,2.51c-0.84,0.9-1.41,2.17-1.71,3.82l-0.12,0.69l8.69,1.53l0.24-1.36L526.68,962.18z M545.26,950.53
		l-2.09-0.37l-7.61,9.76l-0.19,1.06l6.19,1.09l-0.71,4.01l1.62,0.29l0.71-4.01l2.22,0.39l0.24-1.36l-2.22-0.39L545.26,950.53z
		 M541.8,960.71l-4.34-0.76l5.75-7.51l0.04,0.01L541.8,960.71z"/>
	<path id="text3844" class="st4" d="M473.26,959.75c-0.08-0.66-0.02-1.25,0.19-1.77c0.21-0.52,0.51-1.03,0.91-1.53l0.63-0.81
		c0.47-0.56,0.9-1.15,1.29-1.78c0.38-0.63,0.52-1.32,0.42-2.09c-0.15-0.79-0.5-1.36-1.05-1.71c-0.55-0.35-1.21-0.46-1.99-0.33
		c-0.93,0.18-1.59,0.6-1.99,1.25c-0.4,0.65-0.54,1.43-0.44,2.33l1.08-0.19c-0.08-0.58-0.01-1.11,0.22-1.58
		c0.22-0.47,0.65-0.77,1.27-0.9c0.49-0.08,0.9,0,1.21,0.24c0.32,0.24,0.52,0.61,0.61,1.1c0.07,0.59-0.09,1.18-0.47,1.76
		c-0.38,0.58-0.76,1.09-1.15,1.52c-0.7,0.81-1.21,1.59-1.54,2.34c-0.32,0.75-0.39,1.68-0.2,2.78l0.08,0.46l5.8-1.02l-0.16-0.91
		L473.26,959.75z M480.38,958.5c-0.08-0.66-0.02-1.25,0.19-1.77c0.21-0.52,0.51-1.03,0.91-1.53l0.63-0.81
		c0.47-0.56,0.9-1.15,1.29-1.78c0.38-0.63,0.52-1.32,0.42-2.09c-0.15-0.79-0.5-1.36-1.05-1.71c-0.55-0.35-1.21-0.46-1.99-0.33
		c-0.93,0.18-1.59,0.6-1.99,1.25c-0.4,0.65-0.54,1.43-0.44,2.33l1.08-0.19c-0.08-0.58-0.01-1.11,0.22-1.58
		c0.22-0.47,0.65-0.77,1.27-0.9c0.49-0.08,0.9,0,1.21,0.24c0.32,0.24,0.52,0.61,0.61,1.1c0.07,0.59-0.09,1.18-0.47,1.76
		c-0.38,0.58-0.76,1.09-1.15,1.52c-0.7,0.81-1.21,1.59-1.54,2.34c-0.32,0.75-0.39,1.68-0.2,2.78l0.08,0.46l5.8-1.02l-0.16-0.91
		L480.38,958.5z"/>
	<path id="text3848" class="st4" d="M444.95,973.64c-0.29-0.95-0.35-1.84-0.18-2.66c0.17-0.82,0.48-1.65,0.94-2.49l0.72-1.36
		c0.55-0.95,1.03-1.94,1.44-2.96c0.4-1.02,0.43-2.09,0.07-3.2c-0.43-1.12-1.1-1.87-2-2.25c-0.9-0.38-1.91-0.37-3.03,0.03
		c-1.32,0.51-2.19,1.3-2.61,2.36c-0.42,1.07-0.43,2.25-0.04,3.56l1.54-0.56c-0.27-0.84-0.3-1.64-0.09-2.4
		c0.21-0.75,0.76-1.31,1.64-1.66c0.71-0.25,1.33-0.23,1.86,0.04c0.53,0.28,0.93,0.76,1.18,1.46c0.25,0.86,0.17,1.77-0.23,2.73
		s-0.84,1.8-1.3,2.54c-0.82,1.37-1.38,2.66-1.66,3.86c-0.28,1.2-0.14,2.59,0.43,4.17l0.24,0.66l8.3-3.02l-0.47-1.3L444.95,973.64z
		 M453.47,954.71l-3.94,3.02l0.43,1.17l2.58-1.94l4.47,12.29l-2.78,1.01l0.47,1.3l6.98-2.54l-0.47-1.3l-2.66,0.97L453.47,954.71z"/>
	<path id="text3852" class="st4" d="M420.35,981.05c-0.3-0.59-0.44-1.16-0.43-1.72c0.01-0.56,0.13-1.14,0.33-1.74l0.31-0.97
		c0.25-0.69,0.45-1.39,0.6-2.11c0.15-0.72,0.04-1.42-0.32-2.11c-0.41-0.69-0.94-1.1-1.58-1.25c-0.64-0.14-1.3-0.02-1.98,0.37
		c-0.81,0.49-1.29,1.11-1.44,1.85c-0.15,0.75-0.02,1.53,0.39,2.34l0.95-0.55c-0.27-0.52-0.39-1.04-0.34-1.56
		c0.05-0.52,0.34-0.95,0.89-1.28c0.44-0.24,0.84-0.31,1.22-0.19c0.38,0.12,0.7,0.39,0.95,0.82c0.27,0.54,0.32,1.14,0.16,1.82
		c-0.16,0.68-0.34,1.28-0.56,1.82c-0.38,1-0.6,1.91-0.64,2.73c-0.05,0.82,0.21,1.71,0.76,2.68l0.23,0.4l5.1-2.94l-0.46-0.8
		L420.35,981.05z M428.67,971.24c-0.26-0.48-0.64-1.07-1.15-1.75c-0.51-0.69-1.12-1.22-1.83-1.59c-0.72-0.37-1.51-0.33-2.39,0.14
		c-0.69,0.43-1.11,0.96-1.24,1.6c-0.13,0.64-0.1,1.29,0.09,1.95c0.19,0.66,0.42,1.24,0.69,1.74s0.45,0.82,0.55,0.97
		c0.21,0.4,0.57,0.95,1.08,1.64c0.51,0.69,1.13,1.24,1.86,1.65c0.73,0.4,1.55,0.38,2.44-0.09c0.86-0.54,1.3-1.22,1.33-2.03
		c0.03-0.81-0.13-1.61-0.48-2.39C429.27,972.3,428.95,971.69,428.67,971.24L428.67,971.24z M424.33,973.75
		c-0.2-0.31-0.45-0.79-0.77-1.43c-0.32-0.64-0.5-1.29-0.57-1.94c-0.06-0.66,0.19-1.17,0.76-1.54c0.45-0.31,0.99-0.28,1.63,0.07
		c0.64,0.36,1.42,1.32,2.34,2.88c0.63,1.1,1.03,1.99,1.19,2.65s0.18,1.17,0.03,1.52c-0.14,0.35-0.36,0.6-0.65,0.75
		c-0.58,0.3-1.13,0.28-1.64-0.07c-0.52-0.34-0.98-0.8-1.38-1.38C424.88,974.67,424.56,974.17,424.33,973.75L424.33,973.75z"/>
	<path id="text3856" class="st4" d="M392.96,989.1l-1.78,2.79l0.54,0.64l1.17-1.8l5.6,6.68l-1.51,1.27l0.59,0.7l3.79-3.18l-0.59-0.7
		l-1.44,1.21L392.96,989.1z M398.91,988.99c-0.43-0.5-0.71-1.06-0.82-1.69c-0.12-0.62,0.09-1.18,0.63-1.68
		c0.51-0.38,1.03-0.47,1.58-0.26c0.55,0.2,1.01,0.53,1.37,0.97c0.43,0.53,0.67,1.11,0.72,1.75c0.05,0.64-0.14,1.16-0.59,1.57
		c-0.52,0.4-1.03,0.5-1.55,0.32C399.73,989.77,399.29,989.45,398.91,988.99L398.91,988.99z M402.45,994.71
		c0.35-0.05,0.68-0.13,1.02-0.25c0.33-0.12,0.63-0.3,0.91-0.52c0.83-0.7,1.2-1.69,1.11-2.99c-0.08-1.3-0.78-2.75-2.08-4.36
		c-0.44-0.54-0.95-1.03-1.53-1.48c-0.58-0.44-1.2-0.71-1.85-0.8c-0.65-0.09-1.31,0.13-1.96,0.66c-0.74,0.67-1.08,1.45-1,2.34
		c0.07,0.88,0.41,1.68,1.01,2.4c0.55,0.65,1.21,1.08,1.98,1.27c0.77,0.2,1.52,0.02,2.23-0.54c0.37-0.31,0.63-0.65,0.78-1.01
		c0.15-0.36,0.23-0.78,0.24-1.26c0.32,0.42,0.6,0.95,0.85,1.58c0.25,0.63,0.36,1.26,0.35,1.89c-0.01,0.63-0.24,1.15-0.7,1.56
		c-0.21,0.17-0.45,0.28-0.74,0.35s-0.55,0.11-0.81,0.13L402.45,994.71z"/>
	<path id="text3864" class="st4" d="M584.47,975.52c0.36-0.56,0.79-0.97,1.28-1.23c0.49-0.27,1.05-0.46,1.68-0.59l1-0.21
		c0.72-0.12,1.43-0.3,2.13-0.54c0.7-0.23,1.25-0.68,1.67-1.34c0.39-0.7,0.49-1.36,0.29-1.99c-0.2-0.62-0.63-1.14-1.31-1.53
		c-0.83-0.46-1.6-0.56-2.32-0.32c-0.72,0.24-1.34,0.75-1.84,1.51l0.95,0.55c0.32-0.5,0.71-0.86,1.18-1.07
		c0.47-0.22,0.99-0.18,1.55,0.13c0.43,0.26,0.69,0.58,0.77,0.97c0.09,0.39,0.01,0.8-0.24,1.23c-0.33,0.5-0.83,0.85-1.49,1.05
		c-0.66,0.2-1.28,0.34-1.85,0.42c-1.06,0.17-1.95,0.44-2.68,0.81c-0.73,0.37-1.38,1.04-1.94,2l-0.23,0.4l5.1,2.94l0.46-0.8
		L584.47,975.52z M595.28,978.88c-0.32,0.58-0.76,1.03-1.3,1.35c-0.54,0.32-1.14,0.32-1.79-0.01c-0.54-0.35-0.8-0.81-0.79-1.4
		c0.01-0.59,0.16-1.13,0.45-1.63c0.34-0.57,0.8-0.99,1.38-1.26c0.58-0.27,1.14-0.27,1.67,0.01c0.55,0.35,0.83,0.8,0.83,1.35
		C595.74,977.84,595.59,978.37,595.28,978.88L595.28,978.88z M599.46,973.6c-0.16-0.31-0.36-0.6-0.59-0.87
		c-0.23-0.27-0.5-0.5-0.79-0.67c-0.88-0.52-1.92-0.54-3.11-0.07s-2.35,1.64-3.47,3.49c-0.36,0.6-0.64,1.25-0.86,1.94
		c-0.22,0.7-0.26,1.37-0.12,2.01c0.14,0.64,0.57,1.18,1.29,1.62c0.89,0.47,1.73,0.51,2.53,0.14c0.8-0.37,1.44-0.97,1.91-1.78
		c0.42-0.74,0.6-1.5,0.52-2.29c-0.08-0.79-0.5-1.43-1.27-1.91c-0.42-0.24-0.82-0.37-1.22-0.39c-0.39-0.02-0.81,0.05-1.25,0.2
		c0.28-0.44,0.68-0.89,1.19-1.33c0.51-0.45,1.06-0.77,1.65-0.97c0.59-0.2,1.16-0.16,1.71,0.12c0.25,0.15,0.44,0.34,0.59,0.57
		c0.15,0.23,0.27,0.47,0.39,0.72L599.46,973.6z"/>
	<path id="text3868" class="st4" d="M558.14,964.31c0.26-0.61,0.61-1.09,1.05-1.44c0.44-0.35,0.95-0.64,1.55-0.87l0.95-0.39
		c0.69-0.25,1.36-0.55,2-0.9c0.64-0.35,1.11-0.89,1.41-1.6c0.26-0.76,0.24-1.43-0.06-2.01c-0.3-0.58-0.82-1.01-1.56-1.28
		c-0.89-0.31-1.67-0.28-2.34,0.09c-0.67,0.37-1.19,0.97-1.55,1.8l1.03,0.37c0.22-0.55,0.55-0.97,0.98-1.26
		c0.43-0.3,0.95-0.35,1.55-0.15c0.47,0.18,0.78,0.45,0.93,0.82c0.15,0.37,0.15,0.79-0.02,1.25c-0.24,0.55-0.67,0.98-1.29,1.29
		c-0.62,0.31-1.2,0.56-1.75,0.74c-1.01,0.35-1.84,0.77-2.5,1.26s-1.18,1.26-1.57,2.31l-0.16,0.44l5.53,2.01l0.31-0.86L558.14,964.31
		z M572.12,959.19l-4.42-1.61l-2.4,5.33l0.97,0.59c0.31-0.25,0.64-0.44,0.99-0.55c0.35-0.11,0.72-0.1,1.11,0.04
		c0.4,0.14,0.71,0.47,0.92,0.97c0.21,0.51,0.18,1.18-0.1,2.01c-0.2,0.55-0.54,1.01-1.01,1.36c-0.47,0.36-1.01,0.45-1.61,0.26
		c-0.43-0.17-0.77-0.45-1-0.83c-0.24-0.38-0.38-0.8-0.43-1.25l-1.01,0.3c0.13,0.59,0.36,1.12,0.69,1.58
		c0.33,0.47,0.78,0.81,1.37,1.03c0.92,0.3,1.75,0.24,2.48-0.2c0.73-0.44,1.26-1.09,1.59-1.97c0.34-1,0.36-1.87,0.04-2.61
		s-0.86-1.25-1.64-1.54c-0.63-0.23-1.26-0.22-1.88,0.03l1.53-3.36l3.5,1.27L572.12,959.19z"/>
	<path id="text3872" class="st4" d="M603.19,993.11c0.68-0.73,1.41-1.22,2.21-1.49c0.8-0.27,1.67-0.41,2.63-0.43l1.53-0.06
		c1.1,0,2.2-0.08,3.28-0.24c1.09-0.16,2.03-0.68,2.81-1.54c0.76-0.93,1.07-1.89,0.95-2.86c-0.13-0.97-0.64-1.84-1.54-2.61
		c-1.1-0.89-2.22-1.25-3.35-1.08c-1.13,0.17-2.17,0.75-3.1,1.75l1.26,1.06c0.6-0.65,1.27-1.08,2.03-1.28c0.76-0.2,1.51,0,2.26,0.59
		c0.57,0.49,0.86,1.03,0.89,1.63c0.03,0.6-0.2,1.18-0.67,1.76c-0.62,0.65-1.45,1.04-2.48,1.16c-1.03,0.13-1.98,0.17-2.85,0.14
		c-1.6-0.03-2.99,0.14-4.17,0.49c-1.18,0.36-2.31,1.17-3.39,2.45l-0.45,0.54l6.76,5.67l0.89-1.06L603.19,993.11z M619.37,987.91
		l-0.89,1.06l5.13,4.31l-13.68,7.31l1.36,1.14l14.85-8.13L619.37,987.91z"/>
	<path id="path4080" sodipodi:nodetypes="cc" class="st11" d="M555.62,510.85v35.29"/>
	<rect id="rect3602_1_" x="466.38" y="956.28" class="st6" width="88.45" height="40.93"/>
</g>
</svg>
